<svg width="24" height="24" viewBox="0 0 24 24" fill="none" xmlns="http://www.w3.org/2000/svg">
  <path d="M289.87 7279.12C288.242 7279.2 286.831 7279.59 285.691 7280.73C284.548 7281.87 284.155 7283.29 284.082 7284.89C284.036 7285.9 283.768 7293.5 284.544 7295.5C285.068 7296.83 286.098 7297.87 287.455 7298.39C288.087 7298.64 288.81 7298.81 289.87 7298.85C298.73 7299.26 302.015 7299.04 303.4 7295.49C303.646 7294.86 303.815 7294.14 303.862 7293.08C304.267 7284.2 303.796 7282.27 302.252 7280.73C301.027 7279.51 299.586 7278.68 289.87 7279.12ZM289.951 7297.07C288.981 7297.02 288.455 7296.86 288.103 7296.73C287.22 7296.38 286.556 7295.72 286.215 7294.84C285.624 7293.33 285.82 7286.14 285.873 7284.98C285.924 7283.84 286.155 7282.8 286.959 7281.99C287.954 7282.98 288.448 7284.28 288.046 7293C288.002 7293.97 287.84 7294.49 287.704 7294.84C286.803 7297.15 284.732 7297.47 275.926 7297.07C275.266 7297.04 274.732 7296.51 274.732 7295.85C274.732 7295.19 275.266 7294.66 275.926 7294.66C276.586 7294.66 277.12 7295.19 277.12 7295.85C277.12 7296.51 276.586 7297.04 275.926 7297.07L289.951 7297.07ZM298.089 7283.69C298.089 7284.35 298.624 7284.88 299.284 7284.88C299.943 7284.88 300.479 7284.35 300.479 7283.69C300.479 7283.03 299.943 7282.5 299.284 7282.5C298.624 7282.5 298.089 7283.03 298.089 7283.69ZM288.863 7288.99C288.863 7291.8 291.15 7294.08 293.972 7294.08C296.794 7294.08 299.082 7291.8 299.082 7288.99C299.082 7286.17 296.794 7283.89 293.972 7283.89C291.15 7283.89 288.863 7286.17 288.863 7288.99ZM290.656 7288.99C290.656 7290.81 292.14 7292.3 293.972 7292.3C295.804 7292.3 297.289 7290.81 297.289 7288.99C297.289 7287.16 295.804 7285.68 293.972 7285.68C292.14 7285.68 290.656 7287.16 290.656 7288.99Z" fill="currentColor"/>
</svg>