<svg width="24" height="24" viewBox="0 0 24 24" fill="none" xmlns="http://www.w3.org/2000/svg">
  <path d="M251.988 7283.18C251.644 7282.73 251.058 7282.38 250.435 7282.26C248.602 7281.91 237.168 7281.91 235.336 7282.26C234.836 7282.36 234.391 7282.58 234.008 7282.93C232.396 7284.43 232.901 7292.45 233.289 7293.75C233.453 7294.31 233.664 7294.72 233.93 7294.99C234.273 7295.34 234.742 7295.58 235.281 7295.69C236.79 7296.0 244.565 7296.18 250.403 7295.74C250.941 7295.64 251.417 7295.39 251.793 7295.02C253.283 7293.53 253.182 7285.06 251.988 7283.18ZM253.086 7294.95C252.116 7294.91 251.59 7294.75 251.238 7294.61C250.355 7294.27 249.691 7293.61 249.349 7292.73C248.758 7291.21 248.954 7284.02 249.007 7282.86C249.059 7281.72 249.29 7280.68 250.094 7279.88C251.089 7278.88 252.375 7278.4 261.128 7278.79C262.27 7278.84 263.314 7279.07 264.12 7279.88C265.115 7280.87 265.608 7282.17 265.206 7290.9C265.162 7291.87 264.999 7292.39 264.863 7292.74C263.963 7295.05 261.891 7295.37 253.086 7294.97ZM261.224 7283.69C261.224 7284.35 261.758 7284.88 262.418 7284.88C263.078 7284.88 263.613 7284.35 263.613 7283.69C263.613 7283.03 263.078 7282.5 262.418 7282.5C261.758 7282.5 261.224 7283.03 261.224 7283.69ZM252.0 7288.99C252.0 7291.8 254.288 7294.08 257.11 7294.08C259.932 7294.08 262.219 7291.8 262.219 7288.99C262.219 7286.17 259.932 7283.89 257.11 7283.89C254.288 7283.89 252.0 7286.17 252.0 7288.99ZM253.793 7288.99C253.793 7287.16 255.278 7285.68 257.11 7285.68C258.942 7285.68 260.426 7287.16 260.426 7288.99C260.426 7290.81 258.942 7292.29 257.11 7292.29C255.278 7292.29 253.793 7290.81 253.793 7288.99Z" fill="currentColor"/>
</svg>